<?xml version="1.0" encoding="UTF-8" standalone="no"?>
<!-- Created with Inkscape (http://www.inkscape.org/) -->

<svg
   xmlns:dc="http://purl.org/dc/elements/1.1/"
   xmlns:cc="http://creativecommons.org/ns#"
   xmlns:rdf="http://www.w3.org/1999/02/22-rdf-syntax-ns#"
   xmlns:svg="http://www.w3.org/2000/svg"
   xmlns="http://www.w3.org/2000/svg"
   xmlns:sodipodi="http://sodipodi.sourceforge.net/DTD/sodipodi-0.dtd"
   xmlns:inkscape="http://www.inkscape.org/namespaces/inkscape"
   width="744.09448819"
   height="1052.3622047"
   id="svg2"
   version="1.1"
   inkscape:version="0.48.5 r10040"
   sodipodi:docname="New document 1">
  <defs
     id="defs4" />
  <sodipodi:namedview
     id="base"
     pagecolor="#ffffff"
     bordercolor="#666666"
     borderopacity="1.0"
     inkscape:pageopacity="0.0"
     inkscape:pageshadow="2"
     inkscape:zoom="1"
     inkscape:cx="295.9747"
     inkscape:cy="727.30983"
     inkscape:document-units="px"
     inkscape:current-layer="layer1"
     showgrid="false"
     inkscape:window-width="1920"
     inkscape:window-height="1029"
     inkscape:window-x="0"
     inkscape:window-y="0"
     inkscape:window-maximized="1" />
  <metadata
     id="metadata7">
    <rdf:RDF>
      <cc:Work
         rdf:about="">
        <dc:format>image/svg+xml</dc:format>
        <dc:type
           rdf:resource="http://purl.org/dc/dcmitype/StillImage" />
        <dc:title></dc:title>
      </cc:Work>
    </rdf:RDF>
  </metadata>
  <g
     inkscape:label="Layer 1"
     inkscape:groupmode="layer"
     id="layer1">
    <path
       sodipodi:type="arc"
       style="fill:none;stroke:#808080;stroke-width:5;stroke-miterlimit:4;stroke-opacity:1;stroke-dasharray:none"
       id="path3763"
       sodipodi:cx="305.06607"
       sodipodi:cy="265.45334"
       sodipodi:rx="30.304577"
       sodipodi:ry="43.436558"
       d="m 286.10596,299.33831 a 30.304577,43.436558 0 0 1 34.98799,-70.74908"
       sodipodi:start="2.2467629"
       sodipodi:end="5.2696845"
       sodipodi:open="true"
       transform="matrix(1,0,0,0.95394814,-4.5432927,10.224171)" />
    <path
       sodipodi:type="arc"
       style="fill:#000000;fill-rule:evenodd;stroke:#000000;stroke-width:1px;stroke-linecap:butt;stroke-linejoin:miter;stroke-opacity:1;fill-opacity:1"
       id="path2985"
       sodipodi:cx="281.32748"
       sodipodi:cy="381.11581"
       sodipodi:rx="68.185295"
       sodipodi:ry="68.185295"
       d="m 349.51278,381.11581 a 68.185295,68.185295 0 1 1 -136.37059,0 68.185295,68.185295 0 1 1 136.37059,0 z" />
    <rect
       style="fill:#000000;fill-opacity:1;stroke-width:5;stroke-miterlimit:4;stroke-dasharray:none"
       id="rect3757"
       width="33.335033"
       height="26.263966"
       x="264.65997"
       y="293.73761" />
    <path
       sodipodi:type="star"
       style="fill:#c2c400;fill-opacity:1;stroke:#ff0000;stroke-width:3;stroke-miterlimit:4;stroke-opacity:1;stroke-dasharray:none"
       id="path3765"
       sodipodi:sides="11"
       sodipodi:cx="357.1727"
       sodipodi:cy="246.80144"
       sodipodi:r1="25.854734"
       sodipodi:r2="12.4803"
       sodipodi:arg1="1.3389317"
       sodipodi:arg2="1.624531"
       inkscape:flatsided="false"
       inkscape:rounded="0.24261451"
       inkscape:randomized="0"
       d="m 363.11393,271.96429 c -3.38089,0.79826 -3.14269,-12.51399 -6.61153,-12.70057 -3.46884,-0.18657 -4.65993,13.07443 -7.93569,11.91813 -3.27576,-1.15631 4.12178,-12.22651 1.30447,-14.25886 -2.8173,-2.03236 -10.98874,8.47956 -13.11934,5.7358 -2.1306,-2.74375 10.0776,-8.05719 8.80631,-11.29006 -1.27129,-3.23287 -13.82872,1.1925 -14.13771,-2.26758 -0.30899,-3.46009 12.83387,-1.32978 13.51221,-4.73676 0.67835,-3.40698 -12.27817,-6.47318 -10.66744,-9.55104 1.61072,-3.07786 11.51546,5.81984 13.92808,3.32044 2.41261,-2.49939 -6.8294,-12.08366 -3.81035,-13.80209 3.01904,-1.71844 6.54099,11.12168 9.92188,10.32342 3.38089,-0.79827 0.78767,-13.85768 4.25651,-13.6711 3.46884,0.18658 -0.51021,12.89248 2.76555,14.04879 3.27576,1.1563 8.15465,-11.23197 10.97196,-9.19962 2.8173,2.03236 -7.39942,10.57001 -5.26882,13.31377 2.1306,2.74375 12.93259,-5.0402 14.20388,-1.80732 1.2713,3.23287 -11.93936,4.89163 -11.63037,8.35171 0.30899,3.46008 13.60452,2.7518 12.92618,6.15878 -0.67835,3.40698 -12.68865,-2.3398 -14.29937,0.73806 -1.61072,3.07786 9.95711,9.67012 7.5445,12.16951 -2.41261,2.4994 -9.40937,-8.82836 -12.42841,-7.10993 -3.01905,1.71844 3.14839,13.51825 -0.2325,14.31652 z"
       inkscape:transform-center-x="1.1311341"
       inkscape:transform-center-y="-1.2819838"
       transform="translate(-37.394794,-21.318527)" />
  </g>
</svg>
